<?xml version="1.0" encoding="utf-8"?>
<!-- Generator: Adobe Illustrator 24.0.1, SVG Export Plug-In . SVG Version: 6.00 Build 0)  -->
<svg version="1.1" id="Capa_1" xmlns="http://www.w3.org/2000/svg" xmlns:xlink="http://www.w3.org/1999/xlink" x="0px" y="0px"
	 viewBox="0 0 474.1 58.2" style="enable-background:new 0 0 474.1 58.2;" xml:space="preserve">
<style type="text/css">
	.st0{fill:#82BC00;}
	.st1{fill:#003A70;}
</style>
<g>
	<polygon class="st0" points="324.5,1.8 306.2,46.2 287.8,1.8 281.2,1.8 304,56.5 308.3,56.5 331.2,1.8 	"/>
	<rect x="345.3" y="1.8" class="st0" width="6.1" height="54.8"/>
	<path class="st0" d="M448.6,11.3l10.9,26.1h-21.8L448.6,11.3z M446.3,1.8l-23.1,54.8h6.6l5.6-13.5h26.4l5.6,13.5h6.6L451,1.8H446.3
		z"/>
	<rect x="138" y="1.9" class="st1" width="12" height="54.4"/>
	<path class="st1" d="M193.5,1c8.8,0,16.6,3.9,22,10.1l-8.2,6.9c-3.4-3.8-8.4-6.2-13.8-6.2c-9.7,0-17.2,7.3-17.2,17.2
		c0,9.8,7.6,17.1,17.2,17.1c5.5,0,10.5-2.3,13.9-6.2l8.2,6.9c-5.4,6.3-13.3,10.2-22.1,10.2c-16.1,0-29.3-11.8-29.3-28
		C164.3,12.9,177.4,1,193.5,1"/>
	<polygon class="st1" points="228.2,1.9 228.2,56.3 265.9,56.3 265.9,45.4 240.3,45.4 240.3,33.7 263.7,33.7 263.7,23 240.3,23 
		240.3,12.8 265.4,12.8 265.4,1.9 	"/>
	<path class="st0" d="M387.2,50.9c15.2,0,22.5-9,22.5-21.7c0-12.8-7.3-21.8-22.5-21.8h-11v43.4L387.2,50.9L387.2,50.9z M370.1,1.8
		h17.5c17.7,0,28.2,11.2,28.2,27.4c0,16.2-10.4,27.3-28.1,27.3h-17.6V1.8z"/>
	<rect y="2.1" class="st1" width="54.7" height="7.8"/>
	<rect y="17.7" class="st1" width="54.7" height="7.8"/>
	<rect y="33.3" class="st1" width="54.7" height="7.8"/>
	<rect y="48.9" class="st1" width="54.7" height="7.8"/>
	<g>
		<path class="st1" d="M105,45.9c4.1,0,7-2.9,7-6.6c0-3.7-2.9-6.4-7.1-6.4H94.6v13L105,45.9L105,45.9z M102.5,23.6
			c3.4,0,5.8-2.4,5.8-5.8c0-3.2-2.4-5.6-5.8-5.6h-8v11.4C94.6,23.6,102.5,23.6,102.5,23.6z M82.8,1.9h21.6c8.7,0,15.5,5.8,15.5,13.9
			c0,5.2-2.6,9.4-7,10.9c7.2,1.3,10.9,6.7,10.9,13.5c0,9.2-7,16.1-16.5,16.1H82.8V1.9z"/>
	</g>
</g>
</svg>
